<svg width="51" height="33" viewBox="0 0 51 33" fill="none" xmlns="http://www.w3.org/2000/svg">
<path d="M40.3071 32.6926C41.1799 32.6926 41.8947 31.9837 41.8163 31.1145C41.6632 29.4195 41.2642 27.7547 40.6301 26.1765C39.8001 24.1106 38.5835 22.2335 37.0498 20.6524C35.5161 19.0713 33.6953 17.817 31.6914 16.9613C29.6875 16.1056 27.5398 15.6652 25.3708 15.6652C23.2018 15.6652 21.0541 16.1056 19.0502 16.9613C17.0463 17.817 15.2255 19.0713 13.6918 20.6524C12.1581 22.2335 10.9415 24.1106 10.1115 26.1765C9.47737 27.7547 9.07836 29.4195 8.92532 31.1145C8.84684 31.9837 9.56172 32.6926 10.4344 32.6926C11.3072 32.6926 12.0055 31.9829 12.1025 31.1156C12.2442 29.8489 12.5561 28.6061 13.0313 27.4233C13.7025 25.7528 14.6863 24.2348 15.9266 22.9563C17.1668 21.6777 18.6392 20.6634 20.2596 19.9715C21.8801 19.2795 23.6168 18.9233 25.3708 18.9233C27.1247 18.9233 28.8615 19.2795 30.482 19.9715C32.1024 20.6634 33.5748 21.6777 34.815 22.9563C36.0552 24.2348 37.0391 25.7528 37.7103 27.4233C38.1855 28.6061 38.4974 29.8489 38.6391 31.1156C38.736 31.9829 39.4344 32.6926 40.3071 32.6926Z" fill="url(#paint0_linear_1329_2161)"/>
<path d="M42.5684 30.9898C42.5684 30.0494 43.3308 29.2871 44.2712 29.2871H49.0388C49.9792 29.2871 50.7416 30.0494 50.7416 30.9898C50.7416 31.9302 49.9792 32.6926 49.0388 32.6926H44.2712C43.3308 32.6926 42.5684 31.9302 42.5684 30.9898Z" fill="url(#paint1_linear_1329_2161)"/>
<path d="M40.3549 21.2264C39.8847 20.412 40.1637 19.3706 40.9781 18.9004L46.2867 15.8355C47.1011 15.3653 48.1425 15.6443 48.6127 16.4587C49.0829 17.2731 48.8039 18.3145 47.9895 18.7847L42.6809 21.8496C41.8665 22.3198 40.8251 22.0408 40.3549 21.2264Z" fill="url(#paint2_linear_1329_2161)"/>
<path d="M35.5294 14.7403C34.715 14.2701 34.4359 13.2287 34.9061 12.4143L38.3116 6.51588C38.7818 5.70147 39.8232 5.42244 40.6376 5.89264C41.452 6.36283 41.731 7.40421 41.2608 8.21862L37.8554 14.1171C37.3852 14.9315 36.3438 15.2105 35.5294 14.7403Z" fill="url(#paint3_linear_1329_2161)"/>
<path d="M25.2005 11.9192C24.2601 11.9192 23.4978 11.1568 23.4978 10.2164V1.70274C23.4978 0.762341 24.2601 2.42712e-08 25.2005 0C26.1409 -2.42712e-08 26.9033 0.762342 26.9033 1.70274V10.2164C26.9033 11.1568 26.1409 11.9192 25.2005 11.9192Z" fill="url(#paint4_linear_1329_2161)"/>
<path d="M16.1182 14.7403C15.3038 15.2105 14.2624 14.9315 13.7922 14.1171L10.3867 8.21862C9.9165 7.40421 10.1955 6.36283 11.0099 5.89264C11.8244 5.42244 12.8657 5.70147 13.3359 6.51588L16.7414 12.4143C17.2116 13.2287 16.9326 14.2701 16.1182 14.7403Z" fill="url(#paint5_linear_1329_2161)"/>
<path d="M10.3135 21.2263C9.84334 22.0407 8.80196 22.3198 7.98755 21.8496L2.67894 18.7847C1.86453 18.3145 1.5855 17.2731 2.0557 16.4587C2.52589 15.6443 3.56727 15.3652 4.38168 15.8354L9.69029 18.9004C10.5047 19.3706 10.7837 20.4119 10.3135 21.2263Z" fill="url(#paint6_linear_1329_2161)"/>
<path d="M8.17314 30.9898C8.17314 31.9302 7.4108 32.6926 6.4704 32.6926H1.70274C0.762341 32.6926 4.47877e-08 31.9302 0 30.9898C-4.47877e-08 30.0494 0.762341 29.2871 1.70274 29.2871H6.4704C7.4108 29.2871 8.17314 30.0494 8.17314 30.9898Z" fill="url(#paint7_linear_1329_2161)"/>
<defs>
<linearGradient id="paint0_linear_1329_2161" x1="25.3708" y1="0" x2="25.3708" y2="32.6926" gradientUnits="userSpaceOnUse">
<stop stop-color="#C1FF3B"/>
<stop offset="1" stop-color="#C39452"/>
</linearGradient>
<linearGradient id="paint1_linear_1329_2161" x1="25.3708" y1="0" x2="25.3708" y2="32.6926" gradientUnits="userSpaceOnUse">
<stop stop-color="#C1FF3B"/>
<stop offset="1" stop-color="#C39452"/>
</linearGradient>
<linearGradient id="paint2_linear_1329_2161" x1="25.3708" y1="0" x2="25.3708" y2="32.6926" gradientUnits="userSpaceOnUse">
<stop stop-color="#C1FF3B"/>
<stop offset="1" stop-color="#C39452"/>
</linearGradient>
<linearGradient id="paint3_linear_1329_2161" x1="25.3708" y1="0" x2="25.3708" y2="32.6926" gradientUnits="userSpaceOnUse">
<stop stop-color="#C1FF3B"/>
<stop offset="1" stop-color="#C39452"/>
</linearGradient>
<linearGradient id="paint4_linear_1329_2161" x1="25.3708" y1="0" x2="25.3708" y2="32.6926" gradientUnits="userSpaceOnUse">
<stop stop-color="#C1FF3B"/>
<stop offset="1" stop-color="#C39452"/>
</linearGradient>
<linearGradient id="paint5_linear_1329_2161" x1="25.3708" y1="0" x2="25.3708" y2="32.6926" gradientUnits="userSpaceOnUse">
<stop stop-color="#C1FF3B"/>
<stop offset="1" stop-color="#C39452"/>
</linearGradient>
<linearGradient id="paint6_linear_1329_2161" x1="25.3708" y1="0" x2="25.3708" y2="32.6926" gradientUnits="userSpaceOnUse">
<stop stop-color="#C1FF3B"/>
<stop offset="1" stop-color="#C39452"/>
</linearGradient>
<linearGradient id="paint7_linear_1329_2161" x1="25.3708" y1="0" x2="25.3708" y2="32.6926" gradientUnits="userSpaceOnUse">
<stop stop-color="#C1FF3B"/>
<stop offset="1" stop-color="#C39452"/>
</linearGradient>
</defs>
</svg>
