<svg width="15" height="12" viewBox="0 0 15 12" fill="none" xmlns="http://www.w3.org/2000/svg">
<path d="M8.56767 11.7851L14.3125 6.01034L8.56767 0.235627C8.51579 0.167494 8.44987 0.111304 8.37439 0.0708609C8.2989 0.0304178 8.2156 0.00666599 8.13014 0.0012131C8.04467 -0.0042398 7.95903 0.00873392 7.87902 0.0392555C7.799 0.0697771 7.72648 0.117134 7.66636 0.178121C7.60624 0.239107 7.55992 0.3123 7.53055 0.392742C7.50117 0.473185 7.48942 0.559 7.49609 0.644379C7.50277 0.729757 7.52771 0.812705 7.56922 0.887606C7.61074 0.962508 7.66787 1.02762 7.73674 1.07852L12.0349 5.41255H0.599041C0.440495 5.41255 0.288445 5.47553 0.176335 5.58764C0.0642271 5.69975 0.00124359 5.8518 0.00124359 6.01034C0.00124359 6.16889 0.0642271 6.32094 0.176335 6.43305C0.288445 6.54516 0.440495 6.60814 0.599041 6.60814H12.0349L7.73674 10.9422C7.62496 11.0547 7.56248 11.2071 7.56304 11.3657C7.5636 11.5244 7.62716 11.6763 7.73972 11.788C7.85229 11.8998 8.00465 11.9623 8.16328 11.9617C8.32192 11.9612 8.47383 11.8976 8.58561 11.7851H8.56767Z" fill="white"/>
</svg>
