<svg width="18" height="18" viewBox="0 0 18 18" fill="none" xmlns="http://www.w3.org/2000/svg">
<path d="M9.92534 0C10.9378 0.0026999 11.4517 0.0080997 11.8954 0.0206992L12.07 0.026999C12.2716 0.0341987 12.4704 0.0431983 12.7107 0.0539979C13.6683 0.0989963 14.3217 0.250191 14.895 0.472482C15.4889 0.701074 15.9893 1.01066 16.4897 1.51014C16.9475 1.95989 17.3016 2.50413 17.5274 3.10488C17.7497 3.67816 17.9008 4.33154 17.9458 5.29C17.9566 5.52939 17.9656 5.72829 17.9728 5.93078L17.9782 6.10537C17.9917 6.54816 17.9971 7.06204 17.9989 8.0745L17.9998 8.74587V9.92483C18.002 10.5813 17.9951 11.2377 17.9791 11.894L17.9737 12.0686C17.9665 12.271 17.9575 12.4699 17.9467 12.7093C17.9017 13.6678 17.7488 14.3203 17.5274 14.8944C17.3016 15.4952 16.9475 16.0394 16.4897 16.4892C16.04 16.947 15.4957 17.3011 14.895 17.5268C14.3217 17.7491 13.6683 17.9003 12.7107 17.9453L12.07 17.9723L11.8954 17.9777C11.4517 17.9903 10.9378 17.9966 9.92534 17.9984L9.25397 17.9993H8.07591C7.41917 18.0016 6.76243 17.9947 6.10589 17.9786L5.93129 17.9732C5.71765 17.9651 5.50405 17.9558 5.29051 17.9453C4.33295 17.9003 3.67957 17.7491 3.1054 17.5268C2.50497 17.301 1.96104 16.9469 1.51156 16.4892C1.05342 16.0395 0.698984 15.4953 0.472994 14.8944C0.250703 14.3212 0.0995082 13.6678 0.0545098 12.7093L0.0275109 12.0686L0.0230111 11.894C0.0064212 11.2377 -0.00107933 10.5813 0.000511898 9.92483V8.0745C-0.00197911 7.41806 0.00462134 6.76163 0.0203112 6.10537L0.026611 5.93078C0.0338107 5.72829 0.0428103 5.52939 0.0536099 5.29C0.0986083 4.33154 0.249803 3.67906 0.472094 3.10488C0.698611 2.50389 1.05367 1.95962 1.51246 1.51014C1.96168 1.05255 2.50529 0.69844 3.1054 0.472482C3.67957 0.250191 4.33205 0.0989963 5.29051 0.0539979C5.52991 0.0431983 5.7297 0.0341987 5.93129 0.026999L6.10589 0.0215991C6.76213 0.00560923 7.41857 -0.00129118 8.07501 0.000899901L9.92534 0ZM9.00018 4.49983C7.80675 4.49983 6.6622 4.97392 5.81832 5.8178C4.97443 6.66168 4.50034 7.80623 4.50034 8.99966C4.50034 10.1931 4.97443 11.3376 5.81832 12.1815C6.6622 13.0254 7.80675 13.4995 9.00018 13.4995C10.1936 13.4995 11.3382 13.0254 12.182 12.1815C13.0259 11.3376 13.5 10.1931 13.5 8.99966C13.5 7.80623 13.0259 6.66168 12.182 5.8178C11.3382 4.97392 10.1936 4.49983 9.00018 4.49983ZM9.00018 6.29977C9.35473 6.29971 9.70583 6.36948 10.0334 6.50511C10.361 6.64074 10.6587 6.83956 10.9094 7.09023C11.1602 7.3409 11.3591 7.6385 11.4948 7.96604C11.6306 8.29359 11.7005 8.64466 11.7005 8.99922C11.7006 9.35377 11.6308 9.70487 11.4952 10.0325C11.3596 10.36 11.1607 10.6577 10.9101 10.9085C10.6594 11.1592 10.3618 11.3581 10.0342 11.4939C9.70671 11.6296 9.35563 11.6995 9.00108 11.6996C8.28502 11.6996 7.59829 11.4151 7.09196 10.9088C6.58563 10.4025 6.30118 9.71572 6.30118 8.99966C6.30118 8.28361 6.58563 7.59688 7.09196 7.09055C7.59829 6.58422 8.28502 6.29977 9.00108 6.29977M13.7259 3.14988C13.4275 3.14988 13.1414 3.2684 12.9304 3.47938C12.7195 3.69035 12.6009 3.97648 12.6009 4.27484C12.6009 4.5732 12.7195 4.85934 12.9304 5.07031C13.1414 5.28128 13.4275 5.3998 13.7259 5.3998C14.0243 5.3998 14.3104 5.28128 14.5214 5.07031C14.7323 4.85934 14.8509 4.5732 14.8509 4.27484C14.8509 3.97648 14.7323 3.69035 14.5214 3.47938C14.3104 3.2684 14.0243 3.14988 13.7259 3.14988Z" fill="white"/>
</svg>
